PathFileType	4	(X/Y/Z)	C:/Users/beibeiliu/ov580/test_trc/User2\sequence.25_training_dense_right.trc
DataRate	CameraRate	NumFrames	NumMarkers	Units	OrigDataRate	OrigDataStartFrame	OrigNumFrames
120	120	18	19	mm	120	137	272
Frame#	Time	ThumbCMC			ThumbMCP			ThumbIP			ThumbTip			IndexMCP			IndexPIP			IndexTip			MiddleMCP			MiddlePIP			MiddleTip			RingMCP			RingPIP			RingTip			PinkyMCP			PinkyPIP			PinkyTip			BackHand1			BackHand2			BackHand3	
		X0	Y0	Z0	X1	Y1	Z1	X2	Y2	Z2	X3	Y3	Z3	X4	Y4	Z4	X5	Y5	Z5	X6	Y6	Z6	X7	Y7	Z7	X8	Y8	Z8	X9	Y9	Z9	X10	Y10	Z10	X11	Y11	Z11	X12	Y12	Z12	X13	Y13	Z13	X14	Y14	Z14	X15	Y15	Z15	X16	Y16	Z16	X17	Y17	Z17	X18	Y18	Z18	
136	1.13333	59.4229	-18.9915	89.4321	41.2868	-18.7903	59.8879	25.3867	-14.7053	29.859	13.0284	-12.4542	7.99957	56.9415	-9.04131	9.87626	31.5433	-32.418	3.28349	36.2496	-55.2801	35.0956	68.9594	-26.384	-1.2428	45.1094	-51.0291	1.31539	52.392	-59.6984	40.8481	85.1644	-41.7673	-5.17722	62.1473	-62.5267	-2.78213	64.9821	-61.6138	35.4237	110.398	-49.2312	1.6343	103.297	-56.7922	-25.2316	97.863	-55.3653	-47.7571	118.625	-26.6906	47.3553	128.562	-35.4582	82.5296	99.2425	-6.66628	73.0625	
137	1.14167	59.7878	-18.6681	87.9017	41.6453	-17.8684	57.6145	25.2349	-11.6474	26.4174	15.3672	-14.6441	7.41413	55.527	-9.90887	6.57276	34.6181	-33.7377	2.99562	34.2327	-54.5896	32.4201	71.0829	-25.9423	-1.72521	45.1298	-53.6684	3.83524	51.9612	-57.7074	40.9357	85.7171	-42.2991	-8.32619	60.8935	-62.5799	-1.1302	66.3526	-58.289	35.3722	111.533	-49.2197	-1.59791	106.73	-55.4465	-24.5225	104.036	-60.535	-49.75	123.174	-29.2389	48.2335	127.801	-29.6984	81.6635	97.7652	-5.33234	73.0462	
138	1.15	61.2087	-18.346	86.2937	41.4631	-17.9238	58.696	25.6937	-13.3449	26.3982	12.5167	-13.1785	5.54647	58.0129	-11.149	5.69351	35.3543	-36.3617	2.779	37.6711	-55.7819	31.1935	71.8986	-26.1285	-3.8071	48.1741	-54.3536	3.68741	56.0329	-61.6335	38.2472	88.8704	-41.3451	-5.58937	65.1258	-65.2757	-2.76269	67.1687	-58.847	33.734	114.212	-49.7869	-1.31672	108.421	-55.3235	-24.8806	106.91	-58.7011	-49.8121	122.011	-25.9282	46.8293	131.51	-32.526	79.4883	100.711	-8.32409	74.8461	
139	1.15833	64.9752	-21.2196	85.627	46.0978	-19.9547	56.0485	27.3606	-15.3977	25.6084	18.0528	-17.3961	5.66429	56.3258	-9.37392	6.22402	35.8929	-37.0168	3.06505	36.6558	-54.8023	29.8499	73.2011	-26.2873	-3.6167	49.8203	-56.1856	2.64882	57.4038	-62.2159	38.9671	88.1075	-41.238	-5.28656	66.9714	-64.2252	-5.45052	70.3556	-61.1245	33.7762	116.812	-53.8221	-1.44434	110.252	-56.947	-22.5624	107.607	-60.1018	-49.4025	121.768	-27.7864	47.079	132.26	-32.8207	80.6823	103.127	-8.96714	73.2768	
140	1.16667	65.9388	-19.6042	82.3365	41.8717	-18.539	57.1558	27.9998	-18.2606	27.5698	18.2283	-18.0835	4.14746	59.7344	-10.7414	6.75158	40.0663	-40.8652	1.29634	36.7658	-56.34	31.9832	75.7648	-27.3869	-2.55411	49.5219	-56.9603	1.50207	58.0591	-64.4828	39.7058	91.2164	-47.1381	-8.90027	65.5018	-65.4037	-4.75271	71.982	-64.1864	33.868	117.354	-55.2285	2.61675	111.139	-59.3263	-21.8374	106.767	-61.9659	-51.6749	125.341	-34.2182	48.2698	131.162	-34.8951	78.2975	101.324	-7.47274	72.4273	
141	1.175	62.8	-19.9592	84.9932	44.4899	-21.5774	53.3919	27.305	-17.9901	23.1609	18.9427	-22.4821	2.94975	57.064	-14.5401	3.00344	42.0078	-42.4721	-1.13964	41.248	-59.779	29.9519	78.0169	-33.0592	-3.7976	50.2237	-58.3471	0.512797	56.7351	-65.2125	38.9696	87.0899	-47.4804	-8.71655	67.0328	-70.3394	-2.61945	68.2293	-65.5634	31.3291	119.777	-59.5415	1.84416	111.697	-64.1956	-26.3828	108.959	-68.9971	-48.3252	122.76	-30.7833	46.0201	134.371	-36.5802	79.938	104.809	-11.6346	69.6672	
142	1.18333	63.0255	-19.9614	79.0031	41.4276	-21.6189	54.4148	27.7485	-21.0274	21.4181	18.2563	-25.9193	2.8819	60.2989	-18.9971	1.67494	39.9981	-43.9955	-0.999918	38.9513	-62.0549	29.7221	75.7188	-36.7641	-6.37424	54.4158	-63.8677	-1.1093	59.8111	-63.9724	42.3692	87.8631	-53.4281	-10.7152	66.5172	-70.7495	-5.55332	72.0337	-66.678	34.7903	118.759	-61.2593	-0.589143	111.642	-65.8177	-23.8955	111.443	-73.0815	-49.8711	123.189	-34.6111	48.5533	134.842	-37.241	75.0006	102.861	-9.19258	68.4734	
143	1.19167	65.5163	-22.7329	77.6798	42.6045	-24.781	54.8657	26.9116	-24.4859	20.1165	17.1973	-26.903	-1.39743	60.2436	-20.4781	2.91324	38.6344	-49.6942	0.512876	42.6122	-65.9189	31.0741	77.107	-38.9611	-5.53367	54.1832	-67.6835	-0.0986721	58.8781	-64.8547	42.5019	91.1748	-54.0899	-7.14424	67.3243	-78.7466	0.259546	70.81	-70.2228	33.8326	119.565	-64.3865	2.1301	113.067	-72.1384	-22.8326	107.878	-72.8582	-49.289	123.36	-32.9614	43.144	131.703	-37.8748	80.7541	101.811	-13.689	66.7925	
144	1.2	64.3827	-25.3423	83.0117	40.7884	-27.316	54.2036	28.2865	-29.1155	22.2191	14.5783	-31.5151	2.42673	57.2985	-25.7537	0.383903	40.7878	-55.5228	0.137224	37.8501	-67.3736	31.5392	74.4472	-40.2049	-3.47987	52.5332	-70.446	3.52838	57.8236	-67.8169	42.1627	88.3969	-59.2328	-8.63681	68.8995	-80.3581	-2.81485	72.2824	-73.3028	36.3462	119.924	-68.3634	0.743536	111.805	-74.9246	-26.501	108.158	-78.3326	-45.1126	121.633	-37.5465	42.8799	131.46	-37.5507	81.1342	102.625	-12.7424	65.4496	
145	1.20833	62.4834	-26.5798	82.0365	41.3139	-29.6155	52.8735	24.1585	-31.8392	23.4476	12.6041	-34.5021	2.95057	56.6403	-31.2556	1.31957	37.8439	-56.4957	0.335224	36.8493	-70.6796	34.6954	73.5608	-44.3786	-3.7547	49.8921	-73.543	3.87382	58.2697	-70.3402	44.2608	86.2754	-61.0722	-7.06727	63.8663	-83.4866	1.28704	70.5338	-76.0322	37.1507	116.006	-69.0727	2.81271	109.967	-78.0798	-21.1698	109.743	-86.5749	-44.6554	123.397	-41.0381	46.3173	129.984	-38.7833	79.3245	102.273	-16.0045	66.5313	
146	1.21667	59.9274	-26.1262	80.1106	39.8338	-31.6167	57.471	23.2677	-32.8981	23.8535	10.1789	-37.8442	6.78797	49.3628	-31.3182	2.19645	32.6684	-56.0033	2.77998	37.9111	-73.0524	38.4568	69.0173	-47.3618	-1.59517	47.1856	-76.3376	8.17281	57.3474	-67.7762	48.7589	84.3972	-63.7582	-3.57118	61.453	-85.2102	4.33458	65.8572	-77.2073	38.4986	113.16	-72.216	0.371365	106.009	-80.7179	-22.7139	101.251	-86.3777	-46.0015	117.773	-37.2063	44.2519	126.984	-40.4643	77.9194	97.5265	-17.2777	69.3878	
147	1.225	56.5059	-25.1771	82.8384	36.4142	-31.5709	59.1849	20.746	-33.7873	28.0239	8.27196	-37.7326	7.83633	50.7085	-32.6833	5.62771	31.1631	-59.6974	5.3183	34.0024	-72.5724	41.0257	65.7138	-51.6002	-2.00196	41.654	-77.202	12.8879	50.9387	-65.9897	50.6798	78.7829	-64.083	-2.44854	57.955	-85.9383	4.29569	61.8801	-77.522	40.6011	107.441	-70.6443	5.70995	102.756	-82.7348	-18.3173	101.334	-88.773	-41.645	115.467	-39.2531	47.5786	123.004	-39.2468	77.3377	96.3694	-18.3889	70.1958	
148	1.23333	56.9259	-24.8165	84.9511	32.8785	-28.8825	59.1827	16.4912	-31.0592	27.3504	2.75258	-35.8345	10.8902	44.6138	-31.8757	6.17643	27.0371	-60.8145	10.3553	28.0463	-70.5175	45.1861	60.156	-50.0525	0.517837	39.5737	-76.4392	11.3044	50.5634	-67.074	52.2532	73.0204	-64.8138	-2.12549	53.4349	-86.7737	6.18016	56.8457	-75.3927	41.673	104.715	-73.7182	3.12033	99.3554	-86.7276	-19.2881	92.7395	-92.4441	-43.0769	112.801	-42.2481	46.0581	122.518	-39.2444	79.8167	96.6099	-16.8521	70.0268	
149	1.24167	53.5915	-21.6619	88.1416	33.0332	-27.8491	65.4888	12.202	-29.1528	31.4566	2.07292	-36.2399	12.1653	45.0654	-31.8414	9.15543	25.1604	-56.6296	10.9584	26.7444	-70.8644	43.6488	58.1698	-47.7905	3.69575	34.5023	-73.4073	15.3513	47.5483	-65.734	54.8676	69.2975	-64.3594	1.16847	48.7481	-84.0671	8.75418	55.4616	-74.1225	47.0749	99.0364	-75.1745	4.67243	92.994	-86.7447	-17.0282	86.3932	-94.4987	-40.2479	110.656	-40.8135	48.4739	122.863	-40.6096	79.5515	91.4056	-14.1704	69.8749	
150	1.25	55.0854	-19.338	89.5394	31.8899	-24.5554	63.1365	12.8114	-27.7022	35.8903	-2.99212	-30.3197	15.373	40.5587	-28.2093	11.7287	17.4316	-52.2094	13.5454	21.2578	-64.5025	51.7628	54.0866	-50.6145	4.48296	31.124	-73.5324	21.2254	46.0929	-61.2633	57.2904	67.0717	-66.2762	4.15614	41.3923	-84.7141	16.1438	47.944	-73.381	47.909	93.9971	-75.5595	9.25357	87.5943	-88.1094	-10.8468	80.7494	-98.7905	-35.5073	107.953	-40.9963	46.6953	119.672	-39.5274	78.2064	92.0859	-14.9419	68.636	
151	1.25833	55.0484	-14.3988	86.5792	30.0023	-19.3346	65.3282	14.4948	-23.7345	33.8638	-2.38801	-27.6105	16.0489	38.8771	-25.3752	12.9906	17.8297	-50.4669	14.9504	20.1013	-62.1314	52.9905	53.6246	-49.2157	6.77519	26.6004	-69.254	21.8187	40.078	-56.4511	57.3052	60.555	-71.4105	3.80942	36.5583	-84.4278	19.8639	45.2236	-73.2433	50.4782	92.2523	-81.8847	11.3682	80.3019	-92.6217	-10.9584	70.4416	-104.392	-32.4056	105.82	-42.9087	48.02	121.793	-44.1378	81.3441	92.3488	-14.6825	68.676	
152	1.26667	58.5779	-13.7999	86.9578	32.1854	-15.1281	66.0782	10.2486	-15.982	32.5673	-3.71541	-18.9677	16.9416	40.708	-25.6144	12.5822	14.2356	-46.023	17.5762	16.9155	-56.703	52.3589	47.3501	-50.1505	5.48202	22.9633	-62.6759	25.8964	44.413	-52.0271	58.2751	58.8839	-67.932	7.74961	32.2831	-77.8137	18.5762	39.9573	-66.8491	52.546	84.5264	-80.5024	13.0214	72.8561	-96.8205	-9.88832	63.1624	-103.428	-27.3737	108.23	-47.8166	47.5534	116.854	-42.1636	82.4975	93.205	-13.5387	70.0549	
153	1.275	60.4542	-7.6131	88.6171	34.0691	-8.09325	64.3583	12.8346	-8.08248	32.6119	-4.385	-10.6985	17.9283	36.6185	-18.5031	11.9917	11.6026	-39.0459	18.508	14.0964	-50.6975	52.3565	48.6484	-41.9055	7.73761	21.4422	-58.1839	29.4755	42.7919	-41.0378	58.5276	51.1546	-64.3144	7.34287	27.3044	-73.4015	24.5827	38.9211	-62.99	56.6987	79.5583	-80.5405	12.3271	64.8646	-93.5033	-7.78916	52.3298	-100.014	-28.6477	104.691	-47.5617	46.2811	118.02	-43.7544	76.371	96.0718	-14.2117	68.6552	
